<?xml version="1.0" encoding="UTF-8" standalone="no"?><!DOCTYPE svg PUBLIC "-//W3C//DTD SVG 1.1//EN" "http://www.w3.org/Graphics/SVG/1.1/DTD/svg11.dtd"><svg width="100%" height="100%" viewBox="0 0 36 36" version="1.1" xmlns="http://www.w3.org/2000/svg" xmlns:xlink="http://www.w3.org/1999/xlink" xml:space="preserve" xmlns:serif="http://www.serif.com/" style="fill-rule:evenodd;clip-rule:evenodd;stroke-linejoin:round;stroke-miterlimit:2;"><path d="M36,31c0,2.76 -2.24,5 -5,5l-26,0c-2.76,0 -5,-2.24 -5,-5l0,-26c0,-2.76 2.24,-5 5,-5l26,0c2.76,0 5,2.24 5,5l0,26Z" style="fill:#000000;"/><path d="M27.77,21.04c-0.71,-0.5 -1.68,-0.32 -2.18,0.39c-2.14,2.96 -5.22,5.57 -9.58,5.57c-4.36,0 -4.62,-7.88 -2,-13c1.61,-3.14 3.87,-5.73 5.84,-5.72c1.39,0 2.18,1.26 1.8,2.6c-0.46,1.63 -0.51,2.72 -0.51,2.81c-0.04,0.96 0.71,1.77 1.68,1.8c0.02,0 0.04,0.01 0.07,0.01c0.93,0 1.7,-0.74 1.74,-1.68c0,-0.03 0.18,-3.31 2.78,-6.77c0.63,-0.84 0.39,-2.07 -0.57,-2.59c-0.77,-0.42 -1.75,-0.14 -2.27,0.56c-0.15,0.2 -0.29,0.39 -0.42,0.59c-0.14,0.2 -0.4,0.27 -0.62,0.17c-7.7,-3.47 -12.07,3.86 -13.51,7.23c-3,7 -3,18 5.62,18c7.22,0 10.63,-4.75 12.6,-7.79c0.46,-0.71 0.27,-1.66 -0.42,-2.14c-0.01,0 -0.02,-0.02 -0.03,-0.02l-0.02,-0.02Z" style="fill:#fff;fill-rule:nonzero;"/></svg>